<svg xmlns="http://www.w3.org/2000/svg" width="1024" height="1024" viewBox="0 0 1024 1024" role="img" aria-label="C0PL4ND app icon">
  <title>C0PL4ND app icon - monochrome daemon-sigil (summoning seal + terminal prompt)</title>
  <desc>Monochrome phosphor-teal daemon-sigil: a void CRT plate carrying the C0PL4ND core mark (bold prompt chevron + cursor block) as the operative figure of an original summoning seal - double containment ring with 12 radial seal-ticks, a faint kamea grid, four odd-count goetic bind-rune spikes pointing inward, three cardinal pommel dots, and a daemon fork() trident (the demon/daemon pun) as the infernal signature at the base. Single hue (#1ad6c0), shades by opacity only. At 16px all seal chrome vanishes; only the teal keyline + bright prompt silhouette remain.</desc>
  <defs>
    <radialGradient id="vig" cx="50%" cy="48%" r="62%">
      <stop offset="0%" stop-color="#08060d" stop-opacity="0"/><stop offset="74%" stop-color="#08060d" stop-opacity="0"/><stop offset="100%" stop-color="#08060d" stop-opacity="0.65"/>
    </radialGradient>
    <radialGradient id="bloom" cx="50%" cy="50%" r="52%">
      <stop offset="0%" stop-color="#1ad6c0" stop-opacity="0.16"/><stop offset="100%" stop-color="#1ad6c0" stop-opacity="0"/>
    </radialGradient>
    <filter id="phos" x="-25%" y="-25%" width="150%" height="150%"><feGaussianBlur stdDeviation="6" result="b"/><feMerge><feMergeNode in="b"/><feMergeNode in="SourceGraphic"/></feMerge></filter>
    <clipPath id="clip"><rect x="80" y="80" width="864" height="864" rx="176"/></clipPath>
  </defs>
  <g clip-path="url(#clip)">
    <circle cx="512" cy="512" r="360" fill="url(#bloom)"/>
    <g stroke="#1ad6c0" stroke-width="3" opacity="0.15">
      <line x1="392" y1="392" x2="632" y2="392"/><line x1="392" y1="472" x2="632" y2="472"/><line x1="392" y1="552" x2="632" y2="552"/><line x1="392" y1="632" x2="632" y2="632"/>
      <line x1="392" y1="392" x2="392" y2="632"/><line x1="472" y1="392" x2="472" y2="632"/><line x1="552" y1="392" x2="552" y2="632"/><line x1="632" y1="392" x2="632" y2="632"/>
    </g>
  </g>
  <g stroke="#1ad6c0" fill="none">
    <circle cx="512" cy="512" r="372" stroke-width="6" opacity="0.85"/>
    <circle cx="512" cy="512" r="344" stroke-width="3" opacity="0.5"/>
    <g stroke-width="7" opacity="0.8">
      <line x1="512" y1="140" x2="512" y2="168"/><line x1="698" y1="190.2" x2="684" y2="214.4"/><line x1="834" y1="326" x2="809.8" y2="340"/><line x1="884" y1="512" x2="856" y2="512"/>
      <line x1="834" y1="698" x2="809.8" y2="684"/><line x1="698" y1="833.8" x2="684" y2="809.6"/><line x1="326" y1="833.8" x2="340" y2="809.6"/><line x1="190" y1="698" x2="214.2" y2="684"/>
      <line x1="140" y1="512" x2="168" y2="512"/><line x1="190" y1="326" x2="214.2" y2="340"/><line x1="326" y1="190.2" x2="340" y2="214.4"/><line x1="512" y1="856" x2="512" y2="884"/>
    </g>
  </g>
  <g stroke="#1ad6c0" stroke-width="6" fill="none" opacity="0.6" stroke-linecap="round" stroke-linejoin="round">
    <path d="M512 168 L512 250 M494 218 L512 250 L530 218"/>
    <path d="M832 396 L760 436 M772 404 L760 436 L792 444"/>
    <path d="M324 812 L392 712 M428 730 L392 712 L388 752"/>
    <path d="M192 396 L264 436 M232 444 L264 436 L252 404"/>
  </g>
  <g fill="#1ad6c0" opacity="0.85"><circle cx="512" cy="300" r="9"/><circle cx="300" cy="512" r="8"/><circle cx="724" cy="512" r="8"/></g>
  
  <g stroke="#1ad6c0" stroke-width="13" stroke-linecap="round" stroke-linejoin="round" fill="none" opacity="0.92">
    <path d="M512 740 L512 828"/>
    <path d="M466 770 L466 812 M558 770 L558 812"/>
    <path d="M466 770 L512 744 L558 770"/>
    <circle cx="512" cy="740" r="9" fill="#1ad6c0" stroke="none"/>
  </g>
  <g filter="url(#phos)">
    <path d="M372 366 L556 512 L372 658" fill="none" stroke="#7af0e4" stroke-width="88" stroke-linecap="round" stroke-linejoin="round"/>
    <rect x="600" y="566" width="156" height="64" rx="11" fill="#7af0e4"/>
  </g>
</svg>