<svg xmlns="http://www.w3.org/2000/svg" viewBox="0 0 1024 1024" width="1024" height="1024" role="img" aria-label="C0PL4ND app icon — perspective-grid terminal sigil">
  <title>C0PL4ND app icon — perspective-grid terminal sigil</title>
  <rect x="20" y="20" width="984" height="984" rx="208" fill="#010b0a"/>
  <rect x="60" y="60" width="904" height="904" rx="172" fill="none" stroke="#08443d" stroke-width="2.5"/>
  <g stroke="#0d6b60" stroke-width="3.2" stroke-linecap="round">
    <line x1="128" y1="150" x2="172" y2="150"/><line x1="150" y1="128" x2="150" y2="172"/>
    <line x1="852" y1="150" x2="896" y2="150"/><line x1="874" y1="128" x2="874" y2="172"/>
    <line x1="128" y1="874" x2="172" y2="874"/><line x1="150" y1="852" x2="150" y2="896"/>
    <line x1="852" y1="874" x2="896" y2="874"/><line x1="874" y1="852" x2="874" y2="896"/>
  </g>
  <path d="M 246 210 Q 512 164 778 210 Q 848 210 848 280 Q 894 512 848 744 Q 848 814 778 814 Q 512 860 246 814 Q 176 814 176 744 Q 130 512 176 280 Q 176 210 246 210 Z" fill="none" stroke="#1ad6c0" stroke-width="13.0" stroke-linejoin="round" stroke-linecap="round"/>
  <g fill="none" stroke="#0e7569" stroke-width="2.4" stroke-linecap="round" opacity="0.4">
    <line x1="236.0" y1="300.0" x2="788.0" y2="300.0"/>
    <line x1="236.0" y1="344.0" x2="788.0" y2="344.0"/>
    <line x1="236.0" y1="388.0" x2="788.0" y2="388.0"/>
    <line x1="236.0" y1="432.0" x2="788.0" y2="432.0"/>
  </g>
  <g fill="none" stroke="#0e7569" stroke-width="3.2" stroke-linecap="round">
    <line x1="380.0" y1="500.0" x2="644.0" y2="500.0"/>
    <line x1="322.0" y1="548.0" x2="702.0" y2="548.0"/>
    <line x1="262.0" y1="600.0" x2="762.0" y2="600.0"/>
    <line x1="204.0" y1="656.0" x2="820.0" y2="656.0"/>
    <line x1="512.0" y1="462.0" x2="236.0" y2="656.0"/>
    <line x1="512.0" y1="462.0" x2="330.0" y2="656.0"/>
    <line x1="512.0" y1="462.0" x2="424.0" y2="656.0"/>
    <line x1="512.0" y1="462.0" x2="600.0" y2="656.0"/>
    <line x1="512.0" y1="462.0" x2="694.0" y2="656.0"/>
    <line x1="512.0" y1="462.0" x2="788.0" y2="656.0"/>
    <line x1="512.0" y1="462.0" x2="512.0" y2="656.0"/>
  </g>
  <g fill="none" stroke="#0e7569" stroke-width="3.2" stroke-linecap="round">
    <line x1="300.0" y1="462.0" x2="724.0" y2="462.0"/>
  </g>
  <g fill="none" stroke="#1ad6c0" stroke-width="6.5" stroke-linecap="round" stroke-linejoin="round">
    <path d="M 452 372 L 502 412 L 452 452"/>
  </g>
  <g fill="#1ad6c0">
    <rect x="524" y="436" width="70" height="16" rx="4"/>
  </g>
  <g fill="#1ad6c0">
    <circle cx="512.0" cy="462.0" r="13.0"/>
  </g>
  <g fill="#010b0a">
    <circle cx="512.0" cy="462.0" r="4.4"/>
  </g>
  <style>@media (prefers-reduced-motion: reduce){*{animation:none !important}}</style>
</svg>
